<mxfile host="app.diagrams.net" agent="Mozilla/5.0 (Windows NT 10.0; Win64; x64) AppleWebKit/537.36 (KHTML, like Gecko) Chrome/131.0.0.0 Safari/537.36" version="24.8.6">
  <diagram name="Page-1" id="Ngzvp98upWp-beUeENP9">
    <mxGraphModel dx="1257" dy="674" grid="1" gridSize="10" guides="1" tooltips="1" connect="1" arrows="1" fold="1" page="1" pageScale="1" pageWidth="1100" pageHeight="850" math="0" shadow="0">
      <root>
        <mxCell id="0" />
        <mxCell id="1" parent="0" />
        <mxCell id="VuUENsq8BY2gj-94_Kbi-2" value="BNS_chapters" style="rounded=0;whiteSpace=wrap;html=1;" vertex="1" parent="1">
          <mxGeometry x="40" y="80" width="120" height="60" as="geometry" />
        </mxCell>
        <mxCell id="VuUENsq8BY2gj-94_Kbi-3" value="" style="endArrow=none;html=1;rounded=0;" edge="1" parent="1">
          <mxGeometry width="50" height="50" relative="1" as="geometry">
            <mxPoint x="160" y="80" as="sourcePoint" />
            <mxPoint x="220" y="70" as="targetPoint" />
          </mxGeometry>
        </mxCell>
        <mxCell id="VuUENsq8BY2gj-94_Kbi-4" value="Chapter_no" style="ellipse;whiteSpace=wrap;html=1;" vertex="1" parent="1">
          <mxGeometry x="220" y="40" width="70" height="50" as="geometry" />
        </mxCell>
        <mxCell id="VuUENsq8BY2gj-94_Kbi-5" value="" style="endArrow=none;html=1;rounded=0;" edge="1" parent="1">
          <mxGeometry width="50" height="50" relative="1" as="geometry">
            <mxPoint x="160" y="140" as="sourcePoint" />
            <mxPoint x="230" y="150" as="targetPoint" />
          </mxGeometry>
        </mxCell>
        <mxCell id="VuUENsq8BY2gj-94_Kbi-6" value="Chapter_name" style="ellipse;whiteSpace=wrap;html=1;" vertex="1" parent="1">
          <mxGeometry x="230" y="120" width="80" height="60" as="geometry" />
        </mxCell>
        <mxCell id="VuUENsq8BY2gj-94_Kbi-7" value="Punishment" style="rounded=0;whiteSpace=wrap;html=1;" vertex="1" parent="1">
          <mxGeometry x="560" y="80" width="120" height="60" as="geometry" />
        </mxCell>
        <mxCell id="VuUENsq8BY2gj-94_Kbi-8" value="" style="endArrow=none;html=1;rounded=0;" edge="1" parent="1" target="VuUENsq8BY2gj-94_Kbi-9">
          <mxGeometry width="50" height="50" relative="1" as="geometry">
            <mxPoint x="680" y="80" as="sourcePoint" />
            <mxPoint x="730" y="60" as="targetPoint" />
          </mxGeometry>
        </mxCell>
        <mxCell id="VuUENsq8BY2gj-94_Kbi-9" value="Punishment_id" style="ellipse;whiteSpace=wrap;html=1;" vertex="1" parent="1">
          <mxGeometry x="720" y="40" width="90" height="60" as="geometry" />
        </mxCell>
        <mxCell id="VuUENsq8BY2gj-94_Kbi-10" value="" style="endArrow=none;html=1;rounded=0;" edge="1" parent="1" target="VuUENsq8BY2gj-94_Kbi-11">
          <mxGeometry width="50" height="50" relative="1" as="geometry">
            <mxPoint x="680" y="140" as="sourcePoint" />
            <mxPoint x="730" y="150" as="targetPoint" />
          </mxGeometry>
        </mxCell>
        <mxCell id="VuUENsq8BY2gj-94_Kbi-11" value="Description" style="ellipse;whiteSpace=wrap;html=1;" vertex="1" parent="1">
          <mxGeometry x="750" y="110" width="90" height="60" as="geometry" />
        </mxCell>
        <mxCell id="VuUENsq8BY2gj-94_Kbi-12" value="Fine" style="rounded=0;whiteSpace=wrap;html=1;" vertex="1" parent="1">
          <mxGeometry x="40" y="240" width="120" height="60" as="geometry" />
        </mxCell>
        <mxCell id="VuUENsq8BY2gj-94_Kbi-13" value="" style="endArrow=none;html=1;rounded=0;" edge="1" parent="1" target="VuUENsq8BY2gj-94_Kbi-14">
          <mxGeometry width="50" height="50" relative="1" as="geometry">
            <mxPoint x="160" y="260" as="sourcePoint" />
            <mxPoint x="220" y="240" as="targetPoint" />
          </mxGeometry>
        </mxCell>
        <mxCell id="VuUENsq8BY2gj-94_Kbi-14" value="Fine_id" style="ellipse;whiteSpace=wrap;html=1;" vertex="1" parent="1">
          <mxGeometry x="210" y="210" width="90" height="60" as="geometry" />
        </mxCell>
        <mxCell id="VuUENsq8BY2gj-94_Kbi-15" value="" style="endArrow=none;html=1;rounded=0;" edge="1" parent="1" target="VuUENsq8BY2gj-94_Kbi-16">
          <mxGeometry width="50" height="50" relative="1" as="geometry">
            <mxPoint x="160" y="300" as="sourcePoint" />
            <mxPoint x="230" y="310" as="targetPoint" />
          </mxGeometry>
        </mxCell>
        <mxCell id="VuUENsq8BY2gj-94_Kbi-16" value="Description" style="ellipse;whiteSpace=wrap;html=1;" vertex="1" parent="1">
          <mxGeometry x="200" y="280" width="80" height="50" as="geometry" />
        </mxCell>
        <mxCell id="VuUENsq8BY2gj-94_Kbi-17" value="BNS_Sections" style="rounded=0;whiteSpace=wrap;html=1;" vertex="1" parent="1">
          <mxGeometry x="560" y="240" width="120" height="60" as="geometry" />
        </mxCell>
        <mxCell id="VuUENsq8BY2gj-94_Kbi-18" value="" style="endArrow=none;html=1;rounded=0;" edge="1" parent="1" target="VuUENsq8BY2gj-94_Kbi-19">
          <mxGeometry width="50" height="50" relative="1" as="geometry">
            <mxPoint x="680" y="240" as="sourcePoint" />
            <mxPoint x="730" y="190" as="targetPoint" />
          </mxGeometry>
        </mxCell>
        <mxCell id="VuUENsq8BY2gj-94_Kbi-19" value="Sec_no" style="ellipse;whiteSpace=wrap;html=1;" vertex="1" parent="1">
          <mxGeometry x="705" y="180" width="75" height="40" as="geometry" />
        </mxCell>
        <mxCell id="VuUENsq8BY2gj-94_Kbi-20" value="" style="endArrow=none;html=1;rounded=0;" edge="1" parent="1">
          <mxGeometry width="50" height="50" relative="1" as="geometry">
            <mxPoint x="677.36" y="250" as="sourcePoint" />
            <mxPoint x="730" y="240" as="targetPoint" />
          </mxGeometry>
        </mxCell>
        <mxCell id="VuUENsq8BY2gj-94_Kbi-21" value="Chapter_no" style="ellipse;whiteSpace=wrap;html=1;" vertex="1" parent="1">
          <mxGeometry x="730" y="220" width="70" height="40" as="geometry" />
        </mxCell>
        <mxCell id="VuUENsq8BY2gj-94_Kbi-22" value="" style="endArrow=none;html=1;rounded=0;" edge="1" parent="1" target="VuUENsq8BY2gj-94_Kbi-23">
          <mxGeometry width="50" height="50" relative="1" as="geometry">
            <mxPoint x="680" y="270" as="sourcePoint" />
            <mxPoint x="730" y="280" as="targetPoint" />
          </mxGeometry>
        </mxCell>
        <mxCell id="VuUENsq8BY2gj-94_Kbi-23" value="bns_chapters" style="ellipse;whiteSpace=wrap;html=1;" vertex="1" parent="1">
          <mxGeometry x="725" y="260" width="80" height="40" as="geometry" />
        </mxCell>
        <mxCell id="VuUENsq8BY2gj-94_Kbi-24" value="" style="endArrow=none;html=1;rounded=0;" edge="1" parent="1" target="VuUENsq8BY2gj-94_Kbi-25">
          <mxGeometry width="50" height="50" relative="1" as="geometry">
            <mxPoint x="680" y="290" as="sourcePoint" />
            <mxPoint x="720" y="310" as="targetPoint" />
          </mxGeometry>
        </mxCell>
        <mxCell id="VuUENsq8BY2gj-94_Kbi-25" value="Section_title" style="ellipse;whiteSpace=wrap;html=1;" vertex="1" parent="1">
          <mxGeometry x="700" y="300" width="90" height="40" as="geometry" />
        </mxCell>
        <mxCell id="VuUENsq8BY2gj-94_Kbi-26" value="" style="endArrow=none;html=1;rounded=0;" edge="1" parent="1" target="VuUENsq8BY2gj-94_Kbi-27">
          <mxGeometry width="50" height="50" relative="1" as="geometry">
            <mxPoint x="670" y="300" as="sourcePoint" />
            <mxPoint x="690" y="355" as="targetPoint" />
          </mxGeometry>
        </mxCell>
        <mxCell id="VuUENsq8BY2gj-94_Kbi-27" value="Description" style="ellipse;whiteSpace=wrap;html=1;" vertex="1" parent="1">
          <mxGeometry x="670" y="340" width="90" height="40" as="geometry" />
        </mxCell>
        <mxCell id="VuUENsq8BY2gj-94_Kbi-28" value="" style="endArrow=none;html=1;rounded=0;" edge="1" parent="1" target="VuUENsq8BY2gj-94_Kbi-29">
          <mxGeometry width="50" height="50" relative="1" as="geometry">
            <mxPoint x="650" y="300" as="sourcePoint" />
            <mxPoint x="650" y="360" as="targetPoint" />
          </mxGeometry>
        </mxCell>
        <mxCell id="VuUENsq8BY2gj-94_Kbi-29" value="Cognizability" style="ellipse;whiteSpace=wrap;html=1;" vertex="1" parent="1">
          <mxGeometry x="580" y="340" width="90" height="40" as="geometry" />
        </mxCell>
        <mxCell id="VuUENsq8BY2gj-94_Kbi-30" value="" style="endArrow=none;html=1;rounded=0;" edge="1" parent="1">
          <mxGeometry width="50" height="50" relative="1" as="geometry">
            <mxPoint x="570" y="350" as="sourcePoint" />
            <mxPoint x="620" y="300" as="targetPoint" />
          </mxGeometry>
        </mxCell>
        <mxCell id="VuUENsq8BY2gj-94_Kbi-32" value="Bailaibility" style="ellipse;whiteSpace=wrap;html=1;" vertex="1" parent="1">
          <mxGeometry x="510" y="340" width="70" height="40" as="geometry" />
        </mxCell>
        <mxCell id="VuUENsq8BY2gj-94_Kbi-34" value="&amp;nbsp;" style="rounded=0;whiteSpace=wrap;html=1;flipH=1;" vertex="1" parent="1">
          <mxGeometry x="40" y="400" width="120" height="60" as="geometry" />
        </mxCell>
      </root>
    </mxGraphModel>
  </diagram>
</mxfile>
